<svg width="156" height="40" viewBox="0 0 156 40" fill="none" xmlns="http://www.w3.org/2000/svg">
<path d="M19.6334 39.1731H24.3621V31.3672C24.1415 31.3501 23.9105 31.327 23.6877 31.2989C23.316 31.2641 22.9443 31.2128 22.5782 31.15C22.3725 31.1213 22.1723 31.0871 21.9716 31.0468C21.8398 31.0182 21.7085 30.9956 21.5767 30.9669C21.3308 30.9211 21.0848 30.8638 20.8394 30.8014C20.0471 30.6134 19.2661 30.3805 18.5002 30.1039C18.2145 30.0013 17.9287 29.8927 17.6426 29.7779C17.4596 29.7035 17.2765 29.6235 17.0912 29.5436C16.3418 29.2179 15.6107 28.8514 14.9014 28.4456V28.5372C14.2332 28.1803 13.6077 27.7488 13.0369 27.2506C13.0314 27.2506 13.0253 27.2446 13.0198 27.2391C12.5108 26.879 12.0189 26.4957 11.5386 26.0953C11.0699 25.7005 10.6177 25.2891 10.1831 24.8546C9.96254 24.6373 9.74196 24.4134 9.53737 24.1851C9.52518 24.1789 9.51514 24.169 9.50869 24.157C9.30245 23.9364 9.10834 23.7219 8.91974 23.4952C8.5078 23.0259 8.12454 22.5456 7.76168 22.0427C7.56702 21.7797 7.38394 21.5105 7.20141 21.2359C7.05803 21.0247 6.92568 20.8185 6.79498 20.6012C6.78947 20.5957 6.78947 20.5902 6.78396 20.5841C6.65199 20.3782 6.52604 20.1666 6.40621 19.9494C6.09188 19.3946 5.79465 18.8228 5.52388 18.2399C5.40973 17.9939 5.29502 17.748 5.193 17.496C4.98125 16.993 4.78658 16.484 4.61508 15.9695C4.55221 15.7864 4.49542 15.6034 4.43807 15.4181C4.32337 15.0525 4.21748 14.6808 4.12373 14.3085C4.08899 14.1773 4.0548 14.04 4.02613 13.9087C3.96326 13.6628 3.91198 13.4224 3.8607 13.1764C3.80886 12.9079 3.75757 12.6387 3.71731 12.3702C3.66603 12.073 3.62026 11.7697 3.58607 11.4724C3.55188 11.221 3.53093 10.9761 3.50611 10.7291C3.49453 10.6259 3.48847 10.5289 3.48296 10.4258C3.47429 10.371 3.46858 10.3157 3.46585 10.2603C3.45427 10.123 3.44877 9.98459 3.4427 9.84838C3.41991 9.4767 3.4085 9.09934 3.4085 8.71625C1.92072 10.9232 0.900125 13.4111 0.409447 16.027C-0.0812285 18.6429 -0.0316131 21.3315 0.555271 23.9276C0.560785 23.9386 0.560796 23.9557 0.566311 23.9673C1.37525 27.4888 3.14182 30.718 5.6709 33.2985C8.19992 35.8789 11.3931 37.7101 14.8975 38.5896C16.4458 38.98 18.0367 39.176 19.6334 39.1731Z" fill="white"/>
<path d="M24.3624 31.367V21.7717C24.3692 21.1464 24.2518 20.5259 24.0172 19.9463C23.7826 19.3666 23.4353 18.8393 22.9955 18.3947C22.5557 17.9501 22.0321 17.5972 21.455 17.3563C20.8779 17.1154 20.2587 16.9914 19.6334 16.9914C19.008 16.9914 18.3889 17.1154 17.8118 17.3563C17.2347 17.5972 16.7111 17.9501 16.2713 18.3947C15.8315 18.8393 15.4842 19.3666 15.2496 19.9463C15.015 20.5259 14.8977 21.1464 14.9044 21.7717V28.4443C17.8033 30.1033 21.0329 31.1013 24.3624 31.367Z" fill="white"/>
<path d="M13.0234 27.2384C11.9302 26.2931 11.0534 25.1236 10.4524 23.8092C9.85152 22.4948 9.54066 21.0664 9.54094 19.6212C9.54132 18.9512 9.60634 18.2829 9.73511 17.6255C9.86911 16.9731 10.0663 16.3354 10.3241 15.7213C11.0878 13.9106 12.3612 12.3609 13.9895 11.2606C13.9895 11.2551 13.9896 11.2551 13.9956 11.2551C14.2587 11.0091 14.5327 10.7687 14.8134 10.5382C14.8177 10.5377 14.8217 10.5355 14.8245 10.5321C17.4387 8.36414 20.5428 6.86744 23.8672 6.17222C27.1915 5.47698 30.6353 5.60422 33.8992 6.54291C34.0095 6.56552 34.1199 6.59806 34.2302 6.63445C30.9119 2.89785 26.2871 0.576065 21.3082 0.147336C16.3293 -0.281393 11.3757 1.21558 7.46753 4.32992C5.90233 5.57905 4.53523 7.05791 3.41266 8.71619C3.4214 13.5055 4.94474 18.1693 7.76476 22.0404C9.2276 24.0439 11.0032 25.7989 13.0234 27.2384Z" fill="white"/>
<path d="M39.1795 38.6928V29.8464L39.1772 29.8459L39.1754 29.8445L39.1742 29.8426L39.174 29.8403H39.1679C39.0196 29.7432 38.8706 29.6517 38.7267 29.5486C38.3776 29.328 38.0401 29.0914 37.7087 28.851C36.8776 28.2456 36.0868 27.5867 35.3414 26.8784C35.1985 26.7466 35.0551 26.6093 34.9123 26.472C34.8897 26.4494 34.8666 26.4207 34.844 26.3976C34.6377 26.1979 34.4435 25.9978 34.2549 25.791C34.0487 25.5737 33.8486 25.3498 33.6484 25.1292C33.4885 24.9406 33.3225 24.7465 33.1626 24.5519C33.0594 24.4261 32.9569 24.2943 32.8538 24.1631C32.7677 24.06 32.6883 23.9513 32.6077 23.8482C32.4875 23.6883 32.3674 23.5284 32.2532 23.3679C32.213 23.3127 32.1733 23.2576 32.1391 23.208C31.9902 23.0023 31.8412 22.7905 31.7045 22.5732C31.6842 22.548 31.6658 22.5212 31.6494 22.4933C31.495 22.2589 31.346 22.024 31.2032 21.7841C31.0659 21.5723 30.9402 21.3611 30.8261 21.1433C30.7742 21.0634 30.7284 20.9779 30.6827 20.8918C30.563 20.6862 30.4483 20.4805 30.3518 20.2742C30.3402 20.2516 30.3286 20.2345 30.3176 20.2114C30.1858 19.9715 30.0656 19.7255 29.9514 19.4796C29.9514 19.468 29.9459 19.4625 29.9399 19.4509C29.8544 19.2855 29.7799 19.12 29.7054 18.9546C29.7225 19.1752 29.7281 19.4007 29.7281 19.6235V29.2354C29.7286 29.8788 29.7938 30.5207 29.9228 31.1511C30.3618 33.2817 31.5225 35.1954 33.2089 36.5694C34.8953 37.9434 37.0042 38.6934 39.1795 38.6928Z" fill="white"/>
<path d="M39.1793 29.8462V19.6212C39.1783 15.0692 37.5864 10.6607 34.6789 7.15831C34.536 6.98129 34.3871 6.80372 34.2327 6.63222C34.1423 6.602 34.0502 6.57713 33.9569 6.55777C33.944 6.54713 33.9279 6.54112 33.9112 6.54068H33.9002C33.6884 6.47781 33.4712 6.42046 33.2539 6.36311C33.2197 6.35759 33.1794 6.34601 33.1392 6.33498C32.9335 6.28315 32.7217 6.23738 32.5105 6.19161C32.2072 6.12323 31.9039 6.06588 31.5951 6.01459C31.4296 5.98591 31.2642 5.9633 31.0988 5.93463C30.8986 5.90595 30.6929 5.88334 30.4872 5.86018C30.298 5.83702 30.1095 5.81993 29.9209 5.80504C29.8238 5.79952 29.7262 5.78794 29.6237 5.78243C29.1318 5.74824 28.6343 5.73059 28.1347 5.73059C28.0084 5.73059 27.8827 5.73059 27.763 5.73666C27.6527 5.73666 27.5512 5.74217 27.4426 5.74824C27.3834 5.74421 27.3239 5.74603 27.265 5.75375C27.1851 5.75375 27.1051 5.75927 27.0252 5.76533C26.8134 5.77085 26.6022 5.78794 26.3904 5.80504C26.3044 5.8111 26.2189 5.81662 26.1329 5.8282C25.8643 5.85081 25.6013 5.87948 25.3322 5.91974C25.1668 5.94235 24.9953 5.96551 24.8293 5.99363C24.7979 5.99386 24.7669 5.99987 24.7377 6.01128C24.612 6.02838 24.4803 6.05099 24.3518 6.07415C23.8659 6.15962 23.3795 6.26826 22.9052 6.39399C22.7619 6.42873 22.619 6.46844 22.4817 6.50869C21.7112 6.7258 20.9533 6.98537 20.2114 7.28624C20.0002 7.37227 19.794 7.46381 19.5883 7.56197C19.1306 7.76215 18.6845 7.98494 18.2444 8.22372C18.0613 8.31526 17.8843 8.41783 17.7067 8.52095C17.1977 8.81267 16.7003 9.12755 16.2178 9.46449C15.9774 9.63599 15.7374 9.80749 15.5009 9.98506C15.2775 10.1566 15.0548 10.3336 14.8392 10.5112C14.8331 10.5202 14.8251 10.5279 14.816 10.5338C14.7531 10.5795 14.6963 10.6314 14.6334 10.6827C14.4128 10.8657 14.1983 11.0598 13.9871 11.2545C15.651 10.1266 17.6156 9.52482 19.6258 9.52736H19.6313C20.955 9.52736 22.2658 9.78847 23.4885 10.2958C24.7111 10.803 25.8217 11.5466 26.7566 12.4837C28.4872 14.2127 29.5316 16.5109 29.6959 18.9517C29.7703 19.1171 29.8447 19.2826 29.9302 19.448C29.9363 19.4596 29.9418 19.4651 29.9418 19.4767C30.062 19.7226 30.1817 19.9686 30.308 20.2085C30.319 20.2316 30.3306 20.2487 30.3422 20.2713C30.4447 20.4776 30.5594 20.6833 30.673 20.889C30.7188 20.975 30.7646 21.0605 30.8164 21.1404C30.9361 21.361 31.0618 21.5695 31.1936 21.7812C31.3364 22.0211 31.4854 22.256 31.6398 22.4904C31.6562 22.5184 31.6746 22.5451 31.6949 22.5704C31.8316 22.7821 31.9751 22.9933 32.1295 23.2051C32.1637 23.2564 32.2033 23.3082 32.2436 23.365C32.3577 23.5255 32.4779 23.6854 32.5982 23.8453C32.6781 23.9484 32.7581 24.0571 32.8441 24.1602C32.9412 24.2914 33.0443 24.4232 33.1529 24.549C33.3128 24.7436 33.4789 24.935 33.6388 25.1263C33.839 25.3469 34.0391 25.5725 34.2454 25.7881C34.434 25.9943 34.6281 26.1945 34.8343 26.3947C34.8569 26.4179 34.8801 26.4465 34.9027 26.4691C35.0456 26.6065 35.1889 26.7449 35.3317 26.8756C36.0772 27.5838 36.868 28.2427 37.6991 28.8481C38.03 29.0941 38.3681 29.3284 38.7172 29.5518C38.86 29.6488 39.0088 29.7459 39.1583 29.8374H39.1643C39.1632 29.8394 39.1628 29.8417 39.1634 29.844C39.1639 29.8462 39.1654 29.8481 39.1674 29.8493C39.1693 29.8504 39.1717 29.8508 39.1739 29.8502C39.1762 29.8497 39.1781 29.8482 39.1793 29.8462Z" fill="white"/>
<g style="mix-blend-mode:multiply" opacity="0.1">
<g style="mix-blend-mode:multiply" opacity="0.1">
<path d="M9.53997 19.6221C9.54036 18.9521 9.60537 18.2838 9.73408 17.6264C8.34442 14.1726 7.45216 9.82055 7.46981 4.33081C5.90462 5.57994 4.53755 7.05881 3.41498 8.71708C3.42372 13.5064 4.94706 18.1702 7.76705 22.0413C9.2289 24.0445 11.0034 25.7995 13.0224 27.2393C11.9293 26.294 11.0524 25.1245 10.4515 23.8101C9.85055 22.4957 9.5397 21.0673 9.53997 19.6221Z" fill="white"/>
</g>
</g>
<g style="mix-blend-mode:multiply" opacity="0.16">
<g style="mix-blend-mode:multiply" opacity="0.16">
<path d="M24.3622 31.3672V30.4982C20.8086 29.6717 17.5422 27.906 14.9042 25.3856V28.4451C17.8032 30.1038 21.0328 31.1016 24.3622 31.3672Z" fill="white"/>
</g>
</g>
<g style="mix-blend-mode:multiply" opacity="0.1">
<g style="mix-blend-mode:multiply" opacity="0.1">
<path d="M37.7502 12.2958C36.9998 10.4348 35.9637 8.70222 34.6792 7.16063C34.5363 6.98361 34.3874 6.80604 34.233 6.63454C34.1426 6.60432 34.0506 6.57945 33.9572 6.56009C33.9443 6.54945 33.9282 6.54344 33.9115 6.543H33.9005C33.6887 6.48013 33.4715 6.42278 33.2542 6.36543C33.22 6.35991 33.1798 6.34833 33.1395 6.3373C32.9338 6.28547 32.722 6.2397 32.5108 6.19393C32.2075 6.12555 31.9042 6.06819 31.5954 6.01691C31.4299 5.98823 31.2645 5.96562 31.0991 5.93695C30.8989 5.90827 30.6932 5.88566 30.4875 5.8625C30.2983 5.83934 30.1098 5.82225 29.9212 5.80736C29.8242 5.80184 29.7265 5.79026 29.624 5.78475C29.1321 5.75056 28.6346 5.73291 28.135 5.73291C28.0087 5.73291 27.883 5.73291 27.7633 5.73898C27.653 5.73898 27.5516 5.74449 27.4429 5.75056C27.3837 5.74653 27.3242 5.74841 27.2653 5.75607C27.1854 5.75607 27.1054 5.76159 27.0255 5.76765C26.8137 5.77317 26.6025 5.79026 26.3907 5.80736C26.3047 5.81342 26.2192 5.81894 26.1332 5.83052C25.8647 5.85313 25.6016 5.8818 25.3325 5.92206C25.1671 5.94467 24.9956 5.96783 24.8296 5.99595C24.7983 5.99623 24.7672 6.00219 24.738 6.0136C24.6123 6.0307 24.4806 6.05331 24.3521 6.07647C23.8662 6.16194 23.3798 6.27058 22.9055 6.39631C22.7622 6.43105 22.6193 6.47076 22.482 6.51101C21.7115 6.72812 20.9536 6.98774 20.2117 7.28856C20.0005 7.37459 19.7943 7.46613 19.5886 7.56429C19.1309 7.76447 18.6848 7.98726 18.2447 8.22604C18.0616 8.31758 17.8846 8.42015 17.707 8.52327C17.198 8.81499 16.7006 9.12987 16.2181 9.46681C15.9777 9.63831 15.7377 9.80981 15.5012 9.98738C15.2778 10.1589 15.0551 10.3359 14.8395 10.5135C14.8334 10.5225 14.8254 10.5302 14.8163 10.5361C14.7534 10.5818 14.6966 10.6337 14.6337 10.685C14.4132 10.8681 14.1986 11.0622 13.9874 11.2568C15.6513 10.1289 17.6159 9.52714 19.6261 9.52967H19.6316C23.8861 8.53706 30.0679 8.42015 37.4276 12.143C37.5384 12.1871 37.6487 12.239 37.7502 12.2958Z" fill="white"/>
</g>
</g>
<g style="mix-blend-mode:multiply" opacity="0.1">
<g style="mix-blend-mode:multiply" opacity="0.1">
<path d="M39.1793 35.662V29.8464C39.1785 29.8464 39.1778 29.8462 39.177 29.8459C39.1763 29.8456 39.1757 29.8452 39.1752 29.8445C39.1747 29.844 39.1742 29.8433 39.174 29.8426C39.1738 29.8418 39.1737 29.8411 39.1738 29.8403H39.1677C39.0194 29.7432 38.8704 29.6517 38.7265 29.5486C38.3774 29.328 38.0399 29.0914 37.7085 28.851C36.8774 28.2456 36.0866 27.5867 35.3412 26.8784C35.1984 26.7466 35.0549 26.6093 34.9121 26.472C34.8895 26.4494 34.8664 26.4207 34.8438 26.3976C34.6375 26.1979 34.4434 25.9978 34.2548 25.791C34.0485 25.5737 33.8484 25.3498 33.6482 25.1292C33.4883 24.9406 33.3223 24.7465 33.1624 24.5519C33.0593 24.4261 32.9567 24.2943 32.8536 24.1631C32.7675 24.06 32.6881 23.9513 32.6076 23.8482C32.4873 23.6883 32.3672 23.5284 32.253 23.3679C32.2128 23.3127 32.1731 23.2576 32.1389 23.208C31.99 23.0023 31.841 22.7905 31.7043 22.5732C31.684 22.548 31.6656 22.5212 31.6492 22.4933C31.4948 22.2589 31.3458 22.024 31.203 21.7841C31.0657 21.5723 30.94 21.3611 30.8259 21.1433C30.774 21.0634 30.7283 20.9779 30.6825 20.8918C30.5628 20.6862 30.4481 20.4805 30.3516 20.2742C30.34 20.2516 30.3285 20.2345 30.3174 20.2114C30.1856 19.9715 30.0654 19.7255 29.9513 19.4796C29.9513 19.468 29.9457 19.4625 29.9397 19.4509C29.8542 19.2855 29.7797 19.12 29.7053 18.9546C29.7224 19.1752 29.7279 19.4007 29.7279 19.6235V22.1547C31.6902 27.1664 34.78 31.6589 38.7579 35.2843C38.8936 35.4116 39.0365 35.5363 39.1793 35.662Z" fill="white"/>
</g>
</g>
<g style="mix-blend-mode:multiply" opacity="0.3">
<g style="mix-blend-mode:multiply" opacity="0.3">
<path d="M39.1794 38.6928V19.6213C39.1784 15.0693 37.5865 10.6608 34.679 7.15839C35.0733 7.69605 35.4449 8.23924 35.794 8.80558C36.1493 9.38058 36.4738 9.974 36.7662 10.5835C37.0177 11.0925 37.235 11.613 37.4351 12.1391C37.4754 12.2367 37.5096 12.3393 37.5498 12.4424C37.7852 13.0719 37.9876 13.7132 38.1564 14.3637C38.3279 15.0117 38.4652 15.6683 38.5678 16.3307C38.6594 16.9925 38.7332 17.6575 38.7624 18.3209C38.7917 18.9843 38.7856 19.6477 38.7796 20.3337L38.7569 22.3741L38.7282 26.4516V30.529C38.7282 32.1135 38.7378 33.6975 38.7569 35.2809C38.7624 36.2879 38.7796 37.2943 38.7912 38.2946L38.4051 38.2891L37.6331 38.2036L36.8765 38.052L36.1271 37.8408L35.3953 37.5606L34.6922 37.2176L34.0172 36.8173L33.377 36.3596L32.7764 35.8561L32.2101 35.3046L31.6895 34.7096L31.2208 34.0694L30.8089 33.3828L30.4543 32.6659L30.157 31.9226L29.9227 31.1505C30.3616 33.2811 31.5222 35.195 33.2086 36.5692C34.8951 37.9432 37.004 38.6933 39.1794 38.6928Z" fill="white"/>
</g>
</g>
<g style="mix-blend-mode:multiply" opacity="0.3">
<g style="mix-blend-mode:multiply" opacity="0.3">
<path d="M19.6331 39.1733H24.3618V32.4654C24.288 33.5804 24.2477 34.7015 24.1964 35.8166C24.1506 36.8401 24.1165 37.8569 24.0861 38.8815L20.4719 38.79C19.8201 38.7784 19.1853 38.7845 18.5561 38.7349C17.9236 38.6902 17.2938 38.6139 16.6691 38.506C16.046 38.4082 15.4292 38.2746 14.8217 38.1056C14.2048 37.9427 13.5972 37.7461 13.0018 37.5167C12.4129 37.3165 11.835 37.0364 11.2576 36.7844C10.7029 36.4816 10.1255 36.2186 9.59941 35.864C9.04796 35.5497 8.54117 35.1719 8.0206 34.8057C7.76362 34.6227 7.52429 34.4115 7.27724 34.2168C7.02539 34.023 6.78495 33.8149 6.55704 33.5936C6.32818 33.3764 6.08775 33.1646 5.86496 32.9418L5.2032 32.2498C4.98262 32.0292 4.79126 31.7694 4.58005 31.529C4.37987 31.2836 4.16811 31.0487 3.98503 30.7856L3.41923 30.0136L2.90418 29.2074C2.72165 28.9388 2.57332 28.6559 2.41836 28.3802C2.2634 28.1045 2.09244 27.8254 1.96064 27.5337C1.68492 26.9558 1.40588 26.3757 1.18861 25.7663C0.942663 25.1834 0.777227 24.5713 0.570984 23.9708C1.37993 27.4922 3.1465 30.7214 5.67554 33.3019C8.20462 35.8823 11.3978 37.7135 14.9022 38.5931C16.449 38.982 18.0382 39.1768 19.6331 39.1733Z" fill="white"/>
</g>
</g>
<path d="M64.0016 30.2703H63.0795L61.5986 28.2166C61.2353 28.5426 60.8488 28.8499 60.4389 29.1387C60.0384 29.4181 59.6146 29.6649 59.1676 29.8791C58.7205 30.0841 58.2594 30.247 57.7844 30.3681C57.3187 30.4892 56.8437 30.5498 56.3594 30.5498C55.3069 30.5498 54.3149 30.3728 53.3835 30.0189C52.4614 29.6649 51.6511 29.1526 50.9525 28.482C50.2632 27.8021 49.7184 26.9731 49.3179 25.9951C48.9174 25.0172 48.7171 23.9041 48.7171 22.656C48.7171 21.4918 48.9174 20.4253 49.3179 19.4566C49.7184 18.4786 50.2632 17.6404 50.9525 16.9418C51.6511 16.2432 52.4614 15.703 53.3835 15.3211C54.3149 14.9299 55.3069 14.7344 56.3594 14.7344C56.8437 14.7344 57.3234 14.7949 57.7984 14.916C58.2734 15.0371 58.7345 15.2047 59.1815 15.4189C59.6286 15.6332 60.0524 15.8846 60.4529 16.1734C60.8627 16.4621 61.2446 16.7741 61.5986 17.1095L63.0795 15.3351H64.0016V30.2703ZM60.1595 22.656C60.1595 22.1344 60.0571 21.6315 59.8522 21.1471C59.6566 20.6535 59.3864 20.2204 59.0418 19.8478C58.6972 19.4659 58.292 19.1632 57.8263 18.9397C57.3699 18.7068 56.8809 18.5904 56.3594 18.5904C55.8378 18.5904 55.3441 18.6789 54.8784 18.8559C54.422 19.0328 54.0215 19.2936 53.6769 19.6382C53.3416 19.9829 53.0761 20.4113 52.8805 20.9236C52.6849 21.4266 52.5871 22.004 52.5871 22.656C52.5871 23.308 52.6849 23.8902 52.8805 24.4024C53.0761 24.9054 53.3416 25.3292 53.6769 25.6738C54.0215 26.0184 54.422 26.2792 54.8784 26.4562C55.3441 26.6332 55.8378 26.7216 56.3594 26.7216C56.8809 26.7216 57.3699 26.6099 57.8263 26.3863C58.292 26.1535 58.6972 25.8508 59.0418 25.4782C59.3864 25.0963 59.6566 24.6632 59.8522 24.1789C60.0571 23.6852 60.1595 23.1776 60.1595 22.656Z" fill="white"/>
<path d="M77.9169 28.5239C77.6096 28.8034 77.2789 29.0688 76.925 29.3203C76.5803 29.5625 76.2171 29.7767 75.8352 29.963C75.4533 30.1399 75.0575 30.2796 74.6477 30.3821C74.2472 30.4939 73.8373 30.5498 73.4182 30.5498C72.4961 30.5498 71.6299 30.3868 70.8195 30.0608C70.0092 29.7348 69.2967 29.2737 68.682 28.6776C68.0765 28.0722 67.5969 27.341 67.2429 26.4841C66.8983 25.6179 66.726 24.6493 66.726 23.5781V15.3072H70.5262V23.5781C70.5262 24.0811 70.6007 24.5328 70.7497 24.9333C70.908 25.3245 71.1176 25.6552 71.3784 25.9253C71.6392 26.1954 71.9419 26.4003 72.2865 26.54C72.6405 26.6797 73.0177 26.7496 73.4182 26.7496C73.8094 26.7496 74.1773 26.6611 74.5219 26.4841C74.8759 26.2979 75.1832 26.0557 75.444 25.7576C75.7048 25.4596 75.9097 25.1243 76.0588 24.7517C76.2078 24.3698 76.2823 23.9786 76.2823 23.5781V15.3072H80.0964V30.2703H79.1743L77.9169 28.5239Z" fill="white"/>
<path d="M97.4766 30.2703H96.5545L95.0736 28.2166C94.7103 28.5426 94.3238 28.8499 93.914 29.1387C93.5134 29.4181 93.0897 29.6649 92.6426 29.8791C92.1955 30.0841 91.7344 30.247 91.2594 30.3681C90.7937 30.4892 90.3187 30.5498 89.8344 30.5498C88.7819 30.5498 87.7899 30.3542 86.8585 29.963C85.9364 29.5625 85.1261 29.0129 84.4275 28.3144C83.7383 27.6065 83.1934 26.7729 82.7929 25.8135C82.3924 24.8448 82.1921 23.7924 82.1921 22.656C82.1921 21.529 82.3924 20.4812 82.7929 19.5125C83.1934 18.5438 83.7383 17.7056 84.4275 16.9977C85.1261 16.2898 85.9364 15.7356 86.8585 15.3351C87.7899 14.9346 88.7819 14.7344 89.8344 14.7344C90.1697 14.7344 90.5143 14.7623 90.8682 14.8182C91.2315 14.8741 91.5808 14.9672 91.9161 15.0976C92.2607 15.2187 92.582 15.3817 92.8801 15.5866C93.1781 15.7915 93.4296 16.043 93.6345 16.341V9.35544H97.4766V30.2703ZM93.6345 22.656C93.6345 22.1344 93.5321 21.6315 93.3272 21.1471C93.1316 20.6535 92.8615 20.2204 92.5168 19.8478C92.1722 19.4659 91.767 19.1632 91.3013 18.9397C90.8449 18.7068 90.356 18.5904 89.8344 18.5904C89.3128 18.5904 88.8191 18.6835 88.3534 18.8698C87.897 19.0561 87.4965 19.3262 87.1519 19.6802C86.8166 20.0248 86.5511 20.4486 86.3555 20.9515C86.1599 21.4545 86.0621 22.0227 86.0621 22.656C86.0621 23.2056 86.1599 23.7272 86.3555 24.2208C86.5511 24.7145 86.8166 25.1476 87.1519 25.5201C87.4965 25.8927 87.897 26.1861 88.3534 26.4003C88.8191 26.6145 89.3128 26.7216 89.8344 26.7216C90.356 26.7216 90.8449 26.6099 91.3013 26.3863C91.767 26.1535 92.1722 25.8508 92.5168 25.4782C92.8615 25.0963 93.1316 24.6632 93.3272 24.1789C93.5321 23.6852 93.6345 23.1776 93.6345 22.656Z" fill="white"/>
<path d="M104.895 11.2416C104.895 11.5955 104.825 11.9261 104.686 12.2335C104.555 12.5409 104.374 12.811 104.141 13.0438C103.908 13.2674 103.633 13.449 103.317 13.5887C103.009 13.7191 102.679 13.7843 102.325 13.7843C101.971 13.7843 101.635 13.7191 101.319 13.5887C101.011 13.449 100.741 13.2674 100.508 13.0438C100.285 12.811 100.103 12.5409 99.9635 12.2335C99.8331 11.9261 99.7679 11.5955 99.7679 11.2416C99.7679 10.8969 99.8331 10.5709 99.9635 10.2636C100.103 9.94689 100.285 9.67678 100.508 9.45324C100.741 9.22038 101.011 9.03876 101.319 8.90836C101.635 8.76865 101.971 8.69879 102.325 8.69879C102.679 8.69879 103.009 8.76865 103.317 8.90836C103.633 9.03876 103.908 9.22038 104.141 9.45324C104.374 9.67678 104.555 9.94689 104.686 10.2636C104.825 10.5709 104.895 10.8969 104.895 11.2416ZM104.239 30.2703H100.397V15.3072H104.239V30.2703Z" fill="white"/>
<path d="M114.661 30.2703C113.739 30.2703 112.873 30.098 112.063 29.7534C111.252 29.3995 110.54 28.9198 109.925 28.3144C109.32 27.6996 108.84 26.9871 108.486 26.1768C108.141 25.3664 107.969 24.5002 107.969 23.5781V19.1353H106.111V15.3351H107.969V9.35544H111.769V15.3351H117.553V19.1353H111.769V23.5781C111.769 23.9786 111.844 24.3559 111.993 24.7098C112.142 25.0544 112.347 25.3571 112.607 25.6179C112.868 25.8787 113.176 26.0883 113.53 26.2466C113.883 26.3957 114.261 26.4702 114.661 26.4702H117.553V30.2703H114.661Z" fill="white"/>
<path d="M124.204 11.2416C124.204 11.5955 124.134 11.9261 123.994 12.2335C123.864 12.5409 123.682 12.811 123.449 13.0438C123.216 13.2674 122.941 13.449 122.625 13.5887C122.317 13.7191 121.987 13.7843 121.633 13.7843C121.279 13.7843 120.944 13.7191 120.627 13.5887C120.32 13.449 120.049 13.2674 119.817 13.0438C119.593 12.811 119.411 12.5409 119.272 12.2335C119.141 11.9261 119.076 11.5955 119.076 11.2416C119.076 10.8969 119.141 10.5709 119.272 10.2636C119.411 9.94689 119.593 9.67678 119.817 9.45324C120.049 9.22038 120.32 9.03876 120.627 8.90836C120.944 8.76865 121.279 8.69879 121.633 8.69879C121.987 8.69879 122.317 8.76865 122.625 8.90836C122.941 9.03876 123.216 9.22038 123.449 9.45324C123.682 9.67678 123.864 9.94689 123.994 10.2636C124.134 10.5709 124.204 10.8969 124.204 11.2416ZM123.547 30.2703H119.705V15.3072H123.547V30.2703Z" fill="white"/>
<path d="M139.544 18.283L136.75 21.0913C136.61 20.7001 136.419 20.3508 136.177 20.0434C135.935 19.7267 135.66 19.4613 135.353 19.2471C135.054 19.0328 134.729 18.8698 134.375 18.7581C134.021 18.6463 133.657 18.5904 133.285 18.5904C132.763 18.5904 132.27 18.6975 131.804 18.9117C131.347 19.126 130.947 19.4287 130.602 19.8199C130.267 20.2018 130.002 20.6581 129.806 21.1891C129.61 21.72 129.513 22.3067 129.513 22.9494C129.513 23.471 129.61 23.96 129.806 24.4164C130.002 24.8728 130.267 25.2733 130.602 25.6179C130.947 25.9625 131.347 26.2327 131.804 26.4283C132.27 26.6238 132.763 26.7216 133.285 26.7216C133.657 26.7216 134.016 26.6704 134.361 26.568C134.705 26.4655 135.027 26.3211 135.325 26.1349C135.632 25.9393 135.902 25.7064 136.135 25.4363C136.377 25.1569 136.573 24.8495 136.722 24.5142L139.516 27.3224C139.162 27.8254 138.752 28.2771 138.287 28.6776C137.83 29.0781 137.332 29.4181 136.792 29.6975C136.261 29.9769 135.697 30.1865 135.101 30.3262C134.514 30.4752 133.909 30.5498 133.285 30.5498C132.232 30.5498 131.24 30.3542 130.309 29.963C129.387 29.5625 128.577 29.0176 127.878 28.3283C127.189 27.6391 126.644 26.8334 126.243 25.9113C125.843 24.9892 125.643 24.0019 125.643 22.9494C125.643 21.8038 125.843 20.7327 126.243 19.736C126.644 18.7394 127.189 17.8732 127.878 17.1374C128.577 16.3923 129.387 15.8055 130.309 15.377C131.24 14.9486 132.232 14.7344 133.285 14.7344C133.909 14.7344 134.519 14.8135 135.115 14.9719C135.72 15.1302 136.293 15.3631 136.833 15.6704C137.383 15.9685 137.886 16.3364 138.342 16.7741C138.808 17.2119 139.209 17.7149 139.544 18.283Z" fill="white"/>
<path d="M155.681 30.2703H154.759L153.278 28.2166C152.914 28.5426 152.528 28.8499 152.118 29.1387C151.717 29.4181 151.294 29.6649 150.847 29.8791C150.4 30.0841 149.938 30.247 149.463 30.3681C148.998 30.4892 148.523 30.5498 148.038 30.5498C146.986 30.5498 145.994 30.3728 145.063 30.0189C144.14 29.6649 143.33 29.1526 142.632 28.482C141.942 27.8021 141.397 26.9731 140.997 25.9951C140.596 25.0172 140.396 23.9041 140.396 22.656C140.396 21.4918 140.596 20.4253 140.997 19.4566C141.397 18.4786 141.942 17.6404 142.632 16.9418C143.33 16.2432 144.14 15.703 145.063 15.3211C145.994 14.9299 146.986 14.7344 148.038 14.7344C148.523 14.7344 149.002 14.7949 149.477 14.916C149.952 15.0371 150.414 15.2047 150.861 15.4189C151.308 15.6332 151.731 15.8846 152.132 16.1734C152.542 16.4621 152.924 16.7741 153.278 17.1095L154.759 15.3351H155.681V30.2703ZM151.839 22.656C151.839 22.1344 151.736 21.6315 151.531 21.1471C151.336 20.6535 151.065 20.2204 150.721 19.8478C150.376 19.4659 149.971 19.1632 149.505 18.9397C149.049 18.7068 148.56 18.5904 148.038 18.5904C147.517 18.5904 147.023 18.6789 146.557 18.8559C146.101 19.0328 145.701 19.2936 145.356 19.6382C145.021 19.9829 144.755 20.4113 144.56 20.9236C144.364 21.4266 144.266 22.004 144.266 22.656C144.266 23.308 144.364 23.8902 144.56 24.4024C144.755 24.9054 145.021 25.3292 145.356 25.6738C145.701 26.0184 146.101 26.2792 146.557 26.4562C147.023 26.6332 147.517 26.7216 148.038 26.7216C148.56 26.7216 149.049 26.6099 149.505 26.3863C149.971 26.1535 150.376 25.8508 150.721 25.4782C151.065 25.0963 151.336 24.6632 151.531 24.1789C151.736 23.6852 151.839 23.1776 151.839 22.656Z" fill="white"/>
</svg>
